HIERARCHY
ROOT root
{
	OFFSET 0.000000 0.000000 0.000000
	CHANNELS 6 Xposition Yposition Zposition Zrotation Yrotation Xrotation
	JOINT lhip
	{
		OFFSET 0.058581 -0.082280 -0.017664
		CHANNELS 3 Zrotation Yrotation Xrotation
		JOINT lknee
		{
			OFFSET 0.043451 -0.386469 0.008037
			CHANNELS 3 Zrotation Yrotation Xrotation
			JOINT lankle
			{
				OFFSET -0.014790 -0.426874 -0.037428
				CHANNELS 3 Zrotation Yrotation Xrotation
				JOINT ltoe
				{
					OFFSET 0.041054 -0.060286 0.122042
					CHANNELS 3 Zrotation Yrotation Xrotation
					End Site
					{
						OFFSET 0.000000 0.000000 0.000000
					}
				}
			}
		}
	}
	JOINT rhip
	{
		OFFSET -0.060310 -0.090513 -0.013543
		CHANNELS 3 Zrotation Yrotation Xrotation
		JOINT rknee
		{
			OFFSET -0.043257 -0.383688 -0.004843
			CHANNELS 3 Zrotation Yrotation Xrotation
			JOINT rankle
			{
				OFFSET 0.019056 -0.420046 -0.034562
				CHANNELS 3 Zrotation Yrotation Xrotation
				JOINT rtoe
				{
					OFFSET -0.034840 -0.062106 0.130323
					CHANNELS 3 Zrotation Yrotation Xrotation
					End Site
					{
						OFFSET 0.000000 0.000000 0.000000
					}
				}
			}
		}
	}
	JOINT lowerback
	{
		OFFSET 0.004439 0.124404 -0.038385
		CHANNELS 3 Zrotation Yrotation Xrotation
		JOINT upperback
		{
			OFFSET 0.004488 0.137956 0.026820
			CHANNELS 3 Zrotation Yrotation Xrotation
			JOINT chest
			{
				OFFSET -0.002265 0.056032 0.002855
				CHANNELS 3 Zrotation Yrotation Xrotation
				JOINT lowerneck
				{
					OFFSET -0.013390 0.211636 -0.033468
					CHANNELS 3 Zrotation Yrotation Xrotation
					JOINT upperneck
					{
						OFFSET 0.010113 0.088937 0.050410
						CHANNELS 3 Zrotation Yrotation Xrotation
						End Site
						{
							OFFSET 0.000000 0.000000 0.000000
						}
					}
				}
				JOINT lclavicle
				{
					OFFSET 0.071702 0.114000 -0.018898
					CHANNELS 3 Zrotation Yrotation Xrotation
					JOINT lshoulder
					{
						OFFSET 0.122921 0.045205 -0.019046
						CHANNELS 3 Zrotation Yrotation Xrotation
						JOINT lelbow
						{
							OFFSET 0.255332 -0.015649 -0.022946
							CHANNELS 3 Zrotation Yrotation Xrotation
							JOINT lwrist
							{
								OFFSET 0.265709 0.012698 -0.007375
								CHANNELS 3 Zrotation Yrotation Xrotation
								End Site
								{
									OFFSET 0.000000 0.000000 0.000000
								}
							}
						}
					}
				}
				JOINT rclavicle
				{
					OFFSET -0.082954 0.112472 -0.023707
					CHANNELS 3 Zrotation Yrotation Xrotation
					JOINT rshoulder
					{
						OFFSET -0.113228 0.046853 -0.008472
						CHANNELS 3 Zrotation Yrotation Xrotation
						JOINT relbow
						{
							OFFSET -0.260127 -0.014369 -0.031269
							CHANNELS 3 Zrotation Yrotation Xrotation
							JOINT rwrist
							{
								OFFSET -0.269108 0.006794 -0.006027
								CHANNELS 3 Zrotation Yrotation Xrotation
								End Site
								{
									OFFSET 0.000000 0.000000 0.000000
								}
							}
						}
					}
				}
			}
		}
	}
}
MOTION
Frames: 17
Frame Time: 0.033333
0.859600 0.172272 0.967918 90.843120 6.250375 92.463001 6.457055 -1.914750 -12.446950 -4.986038 -12.750026 10.849665 10.971476 9.757489 -18.937128 0.000000 -0.000000 0.000000 2.125601 2.187313 -16.304202 6.321241 3.085397 48.592347 4.822178 -2.436500 -10.704054 0.000000 -0.000000 0.000000 -5.510070 0.661121 5.366727 1.765617 -2.168064 -3.151347 -1.513729 -0.010734 -1.343561 8.018859 1.478284 -4.444984 10.218214 -6.856995 -0.881069 -29.907125 -2.380896 6.262042 -46.650878 -7.034917 11.477373 13.291332 -35.547279 -4.878481 16.395529 -13.863942 -13.865499 25.973678 -2.428564 6.225302 63.569778 -13.050376 8.877739 -13.746820 29.520262 -2.232793 1.262742 11.677917 -20.552109 
0.847459 0.171192 0.965912 89.754837 5.419038 92.133095 5.825210 -2.048105 -12.843623 -5.127547 -11.928161 10.791372 11.281690 9.889751 -18.328392 0.000000 -0.000000 0.000000 1.848011 1.912342 -12.718501 6.803415 4.864207 46.609236 4.942032 -2.121195 -9.824369 0.000000 -0.000000 0.000000 -5.147897 1.607727 4.833447 1.058999 -1.616652 -3.158823 -2.098583 0.630861 -1.712672 8.013995 0.728677 -4.059531 9.701172 -7.214176 -0.655792 -30.033252 -1.719270 6.561911 -46.685589 -5.498348 11.088575 13.423852 -33.289633 -4.461280 16.744215 -13.365294 -14.195189 26.430014 -1.149556 6.395752 63.589275 -12.369428 9.039552 -13.591558 29.822655 -1.106722 -0.262789 11.561319 -20.969762 
0.834287 0.169779 0.963606 88.637698 4.487819 91.868478 5.185951 -2.357773 -13.651734 -5.237090 -10.743154 11.222904 11.326218 9.901215 -17.808891 0.000000 -0.000000 0.000000 1.148424 1.644279 -8.896802 6.873901 6.509190 42.762014 6.176714 -1.725897 -10.139529 0.000000 -0.000000 0.000000 -4.659552 2.727707 4.207113 0.404911 -1.184848 -2.914700 -2.664891 1.385607 -1.989992 7.541164 0.113101 -4.168716 9.351297 -7.750858 -0.331775 -30.099184 -1.072392 6.521837 -46.833533 -3.947647 10.678050 13.476680 -30.578526 -4.976394 17.007688 -13.068206 -14.005677 26.879591 -0.099182 6.599521 63.256847 -10.888805 9.394448 -13.481893 29.783279 -1.007164 -1.171960 11.508644 -19.729007 
0.816250 0.167059 0.960789 87.071904 3.330804 91.516644 4.426302 -2.493845 -14.752926 -5.122070 -9.123437 11.788767 10.994139 9.675846 -17.020173 0.000000 -0.000000 0.000000 -0.063321 1.310364 -3.972923 6.104856 8.053237 34.541754 5.884184 -1.870418 -15.043138 0.000000 -0.000000 0.000000 -3.179181 3.914333 3.599056 -0.972432 -0.529915 -2.755446 -3.663822 2.441100 -1.958842 6.873068 -0.477255 -4.395715 8.989770 -8.297112 -0.240542 -29.349753 -0.031726 6.216628 -47.572461 -2.309207 9.916421 13.418185 -26.850428 -5.312804 17.108196 -12.536530 -14.043106 26.795617 1.107268 6.196552 63.599546 -7.698572 9.782455 -12.713820 28.310824 -1.068146 -2.542867 11.571092 -16.700621 
0.803563 0.165239 0.958539 86.043653 2.976856 91.320833 4.430753 -2.475654 -15.671710 -5.067558 -7.913181 12.371854 10.712842 9.362346 -16.700275 0.000000 -0.000000 0.000000 -0.575280 0.940824 -1.855335 5.584667 8.526960 29.692755 4.380284 -1.886014 -18.098632 0.000000 -0.000000 0.000000 -2.418562 4.864395 3.549310 -0.952840 -0.098665 -2.503130 -3.726953 2.894439 -2.212051 6.189167 0.077794 -5.304928 7.729014 -9.539856 0.732221 -29.722089 0.525833 6.191290 -48.331986 -1.090111 9.392126 14.115422 -25.294627 -5.661583 16.430084 -12.328230 -13.793522 27.664539 2.200744 7.129773 62.188315 -6.083224 9.730027 -13.574458 29.351110 -0.668518 -3.216989 11.668015 -16.657638 
0.783716 0.161155 0.958611 83.997756 2.420953 90.574553 4.229640 -2.090560 -15.796540 -4.737118 -6.678929 12.096514 10.322597 9.591045 -15.770118 0.000000 -0.000000 0.000000 -0.793573 -0.158353 -0.826530 4.941585 10.350662 26.462110 1.958198 -2.136060 -21.622237 0.000000 -0.000000 0.000000 -0.980483 5.850890 4.710662 -1.642127 1.001507 -3.429134 -3.903642 3.760892 -1.972204 5.040735 -0.016707 -6.763731 6.443163 -10.045548 2.442038 -30.117149 1.173061 5.518330 -48.592980 0.788754 8.482429 14.188093 -23.498595 -5.514186 17.899842 -11.623800 -13.787105 28.808199 3.795336 7.706624 60.825820 -3.018078 10.312676 -14.429148 28.793246 -2.254299 -5.928254 11.540880 -15.496221 
0.763844 0.157431 0.958515 81.821350 2.229586 90.474628 4.528496 -1.413109 -16.190527 -4.188284 -5.586926 11.217551 9.574495 9.612509 -14.214200 0.000000 -0.000000 0.000000 -0.258016 -0.290979 -1.396212 4.091615 12.124344 24.568783 0.133363 -2.736952 -23.005653 0.000000 -0.000000 0.000000 0.839251 6.484031 4.724683 -2.009492 2.448741 -3.515710 -4.162877 4.608264 -1.822110 3.905262 -0.173748 -7.517436 5.085115 -10.114644 3.394139 -30.298082 2.378083 4.960990 -49.390269 2.433357 8.211467 14.563561 -22.843795 -5.043928 18.903184 -10.433873 -14.016654 29.450737 5.057236 8.602231 59.403056 0.557867 11.135431 -15.112114 28.132928 -4.062128 -8.377041 11.291730 -15.112031 
0.743070 0.153906 0.959981 79.883410 2.330438 90.420545 5.244490 -0.960098 -16.444564 -3.602026 -4.525460 9.972124 8.511829 9.673938 -12.559605 0.000000 -0.000000 0.000000 0.465417 0.353167 -2.313668 3.534595 12.996251 23.231960 -1.173167 -2.934562 -22.971778 0.000000 -0.000000 0.000000 2.947867 6.658569 4.838047 -2.150353 3.943048 -3.535873 -4.303254 5.263009 -1.679151 2.815829 -0.156939 -7.877825 3.380080 -9.741993 4.061802 -30.333124 4.210284 4.276838 -50.655632 4.086075 8.181792 15.034315 -23.358624 -4.764958 18.865183 -9.704240 -14.590439 29.746403 6.010342 9.081026 57.608754 4.208563 11.955082 -15.082242 27.275670 -5.420358 -10.347237 11.177120 -14.646067 
0.722580 0.150957 0.962961 78.328573 2.577802 89.943708 6.104835 -0.545053 -16.145487 -3.057868 -3.703337 8.621582 6.901635 9.911378 -11.559309 0.000000 -0.000000 0.000000 0.793250 0.926565 -3.055993 3.846404 13.168584 22.501735 -1.661117 -2.381827 -21.726445 0.000000 -0.000000 0.000000 5.296523 6.420873 5.420922 -2.142056 5.251426 -3.332594 -4.298715 5.828851 -1.529863 1.646307 0.037059 -8.135572 1.574050 -8.938605 4.529146 -30.421057 6.112011 3.536678 -52.159189 5.806053 8.108203 15.256038 -24.671359 -4.965638 18.118656 -9.441493 -15.819036 29.865835 6.836819 9.062453 55.490025 7.541984 12.226578 -14.527017 26.695466 -6.477491 -11.487401 11.316228 -13.555938 
0.696987 0.148017 0.967902 77.009459 3.074534 88.976857 7.385160 0.073601 -15.686509 -2.678937 -2.704076 7.686777 4.000040 9.891615 -11.926099 0.000000 -0.000000 0.000000 1.084373 0.795879 -3.642854 4.589932 13.040437 21.618640 -1.507187 -0.883512 -19.657061 0.000000 -0.000000 0.000000 8.494147 5.723696 6.746309 -1.999843 6.374516 -2.905422 -4.211956 6.385660 -1.478589 0.070839 0.428377 -8.278889 -0.438455 -7.474569 4.703067 -30.549574 8.001103 2.971387 -54.237977 8.260465 7.896980 14.992767 -27.055809 -5.312707 17.092083 -9.580779 -17.995799 29.727097 7.861208 8.935168 52.850241 11.017382 11.510728 -13.471896 26.966930 -7.382192 -12.194355 11.839122 -12.254888 
0.676776 0.146287 0.971303 76.339432 3.209744 88.203406 8.224299 0.505906 -15.642542 -2.685801 -1.406287 7.765244 1.523790 9.657743 -13.113759 0.000000 -0.000000 0.000000 1.200959 0.403498 -3.648306 4.830528 12.869389 20.265355 -1.448714 0.043251 -18.167191 0.000000 -0.000000 0.000000 10.432594 5.101654 8.029488 -1.768553 6.781050 -2.699628 -4.001953 6.665794 -1.542245 -0.859738 0.848039 -8.448535 -1.892132 -6.120725 4.856373 -30.638882 9.146335 2.877620 -55.906191 10.412775 7.745413 14.519610 -29.075526 -4.539125 15.733422 -10.481548 -19.381229 29.435079 8.625442 8.941699 51.083919 13.102586 10.914791 -12.881451 28.153533 -8.058810 -12.295651 12.370014 -11.930900 
0.657419 0.144955 0.974036 76.095384 3.038803 87.545920 8.546894 0.887654 -16.076249 -2.730401 0.290261 9.119012 0.564501 10.036919 -14.200953 0.000000 -0.000000 0.000000 1.182944 0.246697 -3.834816 4.903792 12.610141 19.290353 -1.470440 0.415301 -16.870756 0.000000 -0.000000 0.000000 11.596256 4.563929 9.053619 -1.361999 6.914965 -2.511895 -3.665376 6.595533 -1.538705 -1.285474 1.274981 -8.760261 -3.254158 -4.714200 5.152546 -30.941562 9.907823 3.082800 -57.309159 12.311440 7.727519 13.980437 -30.598346 -3.138679 13.890282 -11.755764 -19.805951 29.387428 9.124923 8.823514 49.239547 14.588772 10.605227 -12.430775 29.831072 -8.611950 -11.986487 13.082095 -11.726929 
0.639310 0.144429 0.976517 76.252424 2.701363 86.946575 8.192611 1.239674 -16.985590 -2.341842 2.514978 13.093591 1.786916 11.483264 -15.399191 0.000000 -0.000000 0.000000 1.032435 0.673568 -4.270413 4.984364 12.122273 18.886460 -1.468387 0.196186 -15.640653 0.000000 -0.000000 0.000000 12.386355 4.069383 9.757428 -0.833682 6.896683 -2.325915 -3.341607 6.290350 -1.301099 -1.496898 1.499105 -9.018801 -4.403037 -3.337686 5.155927 -31.311327 10.154947 3.575954 -58.517685 13.553975 7.892548 13.072818 -31.086175 -0.864905 11.862926 -13.012321 -19.490048 29.463537 9.187438 8.573842 47.411661 15.631995 10.392149 -11.983554 31.783047 -8.483109 -11.467060 13.902537 -11.547542 
0.622677 0.144730 0.978563 76.699749 2.161010 86.441207 7.385396 1.013328 -17.870312 -1.663289 4.459570 19.106343 3.382881 12.909961 -16.955836 0.000000 -0.000000 0.000000 0.713737 1.486223 -4.783362 4.926333 11.538021 18.700051 -1.419356 -0.504202 -14.581051 0.000000 -0.000000 0.000000 12.845024 3.728852 10.022052 -0.244791 6.722239 -1.983223 -3.106434 5.911809 -0.924513 -1.648318 1.456330 -9.005901 -5.284476 -2.093176 4.553141 -31.421132 10.034923 4.212995 -59.612064 13.889634 8.317295 11.763036 -30.531295 2.188123 9.505446 -14.194644 -19.188779 29.456454 8.814178 8.131209 46.114040 16.169559 10.374710 -11.818428 33.802654 -7.848383 -10.644678 14.526412 -11.486313 
0.606965 0.145658 0.979943 77.501248 1.510815 86.135896 6.362507 0.195577 -18.562822 -1.444046 4.942472 25.909477 4.425120 13.451713 -18.256280 0.000000 -0.000000 0.000000 0.293709 2.011270 -5.425078 4.663204 10.984825 18.544742 -1.366767 -1.195238 -13.652910 0.000000 -0.000000 0.000000 12.992371 3.575018 9.993425 0.364248 6.364279 -1.819940 -2.919835 5.549667 -0.672506 -1.777360 1.358283 -8.548773 -5.833800 -1.260515 3.895126 -31.282182 9.649732 4.836202 -60.373487 13.823832 8.883985 10.303600 -29.700793 5.569207 7.012669 -15.129383 -18.798971 29.240349 8.163287 7.755196 45.553692 15.893622 10.410396 -12.041520 35.724218 -7.191396 -9.672646 14.762606 -11.772586 
0.592550 0.147096 0.980911 78.378251 0.893941 85.759324 5.178403 -0.623452 -18.712589 -1.927032 4.125388 32.780898 4.991257 13.473772 -19.466240 0.000000 -0.000000 0.000000 -0.206895 2.007363 -5.822984 4.405434 10.664438 18.238298 -1.239508 -1.588364 -12.726982 0.000000 -0.000000 0.000000 13.094382 3.470290 10.046330 0.837138 5.943354 -1.875296 -2.816456 5.185687 -0.619301 -1.814244 1.193194 -7.757148 -6.079703 -0.694454 3.437545 -31.261255 9.187618 5.398088 -60.391631 13.856925 9.435147 8.990784 -29.674182 8.705755 4.764504 -16.004915 -18.061914 29.015165 7.523684 7.630943 45.415138 14.815794 10.437416 -12.437535 37.255445 -6.998428 -8.761185 14.793787 -12.297467 
0.578264 0.148775 0.981532 79.418989 0.631266 85.468873 4.249060 -1.506514 -18.561415 -2.790991 3.136715 39.319561 5.247277 13.327351 -20.638230 0.000000 -0.000000 0.000000 -0.454761 2.010391 -6.162503 4.272487 10.289701 17.709537 -1.144385 -2.137760 -11.716465 0.000000 -0.000000 0.000000 13.356480 3.149080 10.073422 1.259517 5.525795 -2.099824 -2.810192 4.800048 -0.620736 -1.726003 0.806045 -7.116649 -6.195014 -0.188386 3.222439 -31.391859 8.947233 5.746938 -59.827949 13.575928 9.950905 7.971072 -30.125014 10.978941 3.149393 -16.944030 -17.121455 28.916185 6.819689 7.376223 45.363260 13.272597 10.681872 -12.586884 37.970071 -7.029257 -7.969593 14.734990 -12.858550 
